<?xml version="1.0" encoding="UTF-8"?>
<svg xmlns="http://www.w3.org/2000/svg" width="595.28" height="841.89" viewBox="0 0 595.28 841.89">
  <g id="baggrund">
    <g>
      <path d="M459.79,329.95c-3.18-1.06-2.12-22.27-15.91-28.63-13.79-6.36-27.57-10.6-39.24-9.54-11.66,1.06-244.96,5.3-256.62,5.3s-31.81,14.85-31.81,14.85c0,0-13.79,10.6-11.66,37.12,2.12,26.51-1.99,112.59-2.25,121.14-.31,10.34-.83,36.99,7.65,45.47,8.48,8.48,15.65,11.99,26.25,13.05,3.75.37,47.49-3.74,94.25,0,.31-.45-2.92-1.36-2.19-1.39.92,1.39.54,1.39.92,1.39.06,0-.06,0,0,0,.31-.24-.52,0,0,0,.96,0,.87-.65,1.27,0,43.14-1.85,94.94-3.16,134.4-5.2.33-.33,1.87.56,2-.07.45-2.22-.17-.04,0,0,.15-.03,1.15.12,1.2-.04.68-2.26-.31-.15,0,0,.31-.26,2.1.45,2.25-.07.6-2.14,1.17-.31,1.54-.05,35.27-1.85,59.87-.75,61.44-1.38,5.3-2.12,28.63,0,33.93-6.36,5.3-6.36,5.3-3.18,5.3-15.91s-9.54-168.61-12.73-169.67Z" style="fill: #a97c50; stroke: #ad7b58; stroke-miterlimit: 10;"/>
      <path d="M116.21,313.34c8.25-12.07,14.85-25.45,24.39-31.81s32.87-10.6,32.87-10.6h230.11c9.54,0,51.46,1.93,67.32,8.34,15.05,6.08,16.46,34.08,16.46,34.08,0,0,9.54,173.91,7.42,181.33-2.12,7.42-27.57,22.27-27.57,22.27" style="fill: #a97c50; stroke: #ad7b58; stroke-miterlimit: 10;"/>
      <line x1="443.88" y1="302.73" x2="472.51" y2="279.4" style="fill: #a97c50; stroke: #ad7b58; stroke-miterlimit: 10;"/>
    </g>
    <path d="M443.88,302.73l26.39-25.8,4.01,1.25,4.32,4.01s3.4,3.89,4.93,6.73c2.17,4.04,2.91,7.07,3.39,12.34s7.85,191.94,7.85,191.94c0,0-19.61,18.5-20.75,16.49s-11.52-162.93-11.63-162.28-2.61-17.52-2.61-17.52l-3.8-15.92-3.38-4.93-8.72-6.3" style="fill: #8b5e3c; stroke: #ad7b58; stroke-miterlimit: 10;"/>
    <path d="M149.04,297.15c-3.32-3-7.37-6.31-10.32-9.17-.63-.66-2.76-1.26-2.45-2.13,2.11-2.5,7.84-6.2,10.94-7.75,5.7-2.85,9.17-4.2,14.44-5.61,5.09-1.45,7.7-1.96,12.86-3.05,12.21-2.59,211.91.44,236.27.03,1.03-.02,2.04.12,3.07.17,18.52.91,38.2,1.12,54.35,5.19.55.14,4.05,2.2,4.3,2.58.01.52.5.41,0,.86-3.93,3.14-13.07,10.32-17.3,13.61" style="fill: #8b5e3c; stroke: #ad7b58; stroke-miterlimit: 10;"/>
  </g>
  <g id="stropper_hjørner">
    <path d="M433.67,521.82s9.28-36.28,38.04-47.83l1.19,25.56v12.66s-5.08,5.45-11.87,6.57-27.36,3.04-27.36,3.04Z" style="fill: #7e402f; stroke: #996c4e; stroke-miterlimit: 10;"/>
    <path d="M102.87,492.26c-.45-2-.71-4.22,1.35-4.25,4.93-.06,13.5.39,19.27,3.76,0,0,22.73,14.69,24.86,23.68,0,0,5.86,11.57,1.57,14.76,0,0-7.08.44-8.85-.11-.26-.08-4.63.15-4.86,0l-9.18-2.92c-.49-.3-10.46-5.26-11.03-5.23-1.2.06-4.06-.8-7.87-8.62-3.49-7.16-4.11-16.02-5.25-21.08Z" style="fill: #7e402f; stroke: #996c4e; stroke-miterlimit: 10;"/>
    <path d="M471.71,473.99s23.15,22.45,15.61,28.07c-7.54,5.61-14.42,10.15-14.42,10.15l-1.19-38.22Z" style="fill: #703627; stroke: #996c4e; stroke-miterlimit: 10;"/>
    <path d="M221.73,527.81s-5.86-20.87-5.86-53.82,2.93-102.57,2.93-102.57l2.93-75.62h-34.88s-4.14,49.93-4.14,74.8-2.86,87.25-2.49,103.4c.44,19.23,4.04,56.72,3.98,55.82l37.53-2Z" style="fill: #7e402f; stroke: #7e402f; stroke-miterlimit: 10;"/>
    <path d="M361.09,524.57s-5.05-21.89-5.05-54.84,2.93-102.57,2.93-102.57l2.93-75.62h-34.88s-4.14,49.93-4.14,74.8-3.07,87.26-2.49,103.4c.64,17.71,4,56.42,4,56.42l36.69-1.58Z" style="fill: #7e402f; stroke: #7e402f; stroke-miterlimit: 10;"/>
    <polygon points="213.38 269.43 186.86 295.79 221.73 295.79 248.2 269.43 213.38 269.43" style="fill: #7e402f; stroke: #7e402f; stroke-miterlimit: 10;"/>
    <polygon points="352.64 269.43 327.03 291.54 361.9 291.54 382.48 269.43 352.64 269.43" style="fill: #7e402f; stroke: #7e402f; stroke-miterlimit: 10;"/>
    <path d="M404.08,293.16c-1.66.2-2.88,1.67-2.73,3.33.3,3.27,1.51,9.33,5.8,18.65,6.94,15.11,17.56,23.68,20.82,26.13s16.33,8.98,20.01,10.21c2.21.74,7.38,1.9,11.16,2.71,2.12.46,4.05-1.35,3.73-3.5l-3.28-22.23c-.03-.21-.08-.41-.15-.61l-3.03-12.16c-.18-.48-6.59-10.37-6.97-10.71-2.7-2.42-11.44-8.86-13.47-7.64-2.24,1.34-14.26-5.3-18.26-5.78-.24-.03-.46-.01-.7.02l-12.92,1.58Z" style="fill: #7e402f; stroke: #996c4e; stroke-miterlimit: 10;"/>
    <path d="M105.23,354.42s22.72,2.08,30.29-7.58,13.05-21.14,13.57-26.62,1.85-23.42-.68-23.21-16.16,5.19-16.16,5.19l-9.94,5.77-9.29,7.72-4.88,8.72-2.48,8.58-.44,8.89v12.54Z" style="fill: #7e402f; stroke: #996c4e; stroke-miterlimit: 10;"/>
    <path d="M463.54,355.1c-.1-.56-2.95-22.43-3.38-25.2-1.83-5.14-5.17-14.12-6.88-18.85-.56-2.19-1.55-2.8-3.31-4.43-1.62-1.5-3.7-3.43-4.8-4.45-.71-.67-.97-.89-.76-1.15,3.54-2.88,10.74-8.86,14.17-11.43,14.12,15.16,8.46,47.86,4.98,65.53v-.03Z" style="fill: #703627; stroke: #996c4e; stroke-miterlimit: 10;"/>
    <path d="M404.64,292.83s11.37-7.46,17.09-8.14,9.74-1.67,24.05,1.89c14.32,3.56,12.81,4.31,12.81,4.31l-14.32,10.36h0l-18.21-6.59-9.91-1.91-11.51.07Z" style="fill: #703627; stroke: #996c4e; stroke-miterlimit: 10;"/>
    <path d="M122.24,308.07c4.66-3.16,20.12-11.96,24.3-10.92,5.66,1.4.17-2.23-1.3-3.89-2.05-1.91-4.99-4.66-6.98-6.49-1.17-.91-2.31-.63-3.52.49-2.52,4.05-13.34,15.23-14.4,20.81h1.91Z" style="fill: #703627; stroke: #996c4e; stroke-miterlimit: 10;"/>
    <path d="M365.27,524.14c.14,0,.84-.6,1.43,1.29-1.09-5.62-4.08-23.92-4.8-50.27-.84-30.51,0-54.17,0-54.17,0,0,1.4-61.84,1.4-62.39s4.74-63.46,4.74-63.46l-6.15-1.28-3.99,102.29-1.52,49.51v39.3l4.65,39.18,3.64-.21c.33-.44.6-1.12,1.34,1.06" style="fill: #703627; stroke: #703627; stroke-miterlimit: 10; stroke-width: 1.5px;"/>
    <path d="M228.26,528.72c.05,0-.05,0,0,0,.05-.03-.05.03,0,0-.77-3.86-4.45-23.01-5.22-50.88-.84-30.51,0-54.16,0-54.16,0,0,1.4-61.84,1.4-62.39s4.74-63.46,4.74-63.46l-6.15-1.28-3.99,102.29-1.52,49.51v39.3l4.21,40.16,6.53.91c.25-.11-.35,0,0,0Z" style="fill: #703627; stroke: #703627; stroke-miterlimit: 10; stroke-width: 1.5px;"/>
    <polygon points="231.08 293.89 255.41 270.92 248.63 270.92 224.61 294.57 231.08 293.89" style="fill: #703627; stroke: #703627; stroke-miterlimit: 10;"/>
    <polygon points="361.9 291.54 381.45 270.54 388.3 270.54 369.87 291.54 361.9 291.54" style="fill: #703627; stroke: #703627; stroke-miterlimit: 10;"/>
    <line x1="200.63" y1="370.75" x2="200.63" y2="365.11" style="fill: #414042; stroke: #414042; stroke-miterlimit: 10; stroke-width: 2px;"/>
    <line x1="200.63" y1="354.74" x2="200.63" y2="349.1" style="fill: #414042; stroke: #414042; stroke-miterlimit: 10; stroke-width: 2px;"/>
    <line x1="340.87" y1="367.93" x2="340.87" y2="362.29" style="fill: #414042; stroke: #414042; stroke-miterlimit: 10; stroke-width: 2px;"/>
    <line x1="340.87" y1="354.74" x2="340.87" y2="349.1" style="fill: #414042; stroke: #414042; stroke-miterlimit: 10; stroke-width: 2px;"/>
    <path d="M111.35,499.87c.61,2.61,2.35,8.47,7.55,13.73,6.4,6.47,13.95,7.88,16.48,8.24" style="fill: none; stroke: #703627; stroke-miterlimit: 10; stroke-width: 1.5px;"/>
  </g>
  <g id="hover_1">
    <path d="M386.15,422.88c3.44-4.02,7.03-.12,11.06.25,2.04.23,4.61-.19,6.27-1.37,1.29-1.03,2.38-2.04,4.15-2.11,2.65-.59,5.88,1.98,8.01-.15,2.3-2.45.82-6.05-1.72-7.67-1.43-1.09-2.49-2.17-2.21-3.61.43-2.43,3.55-4.13,3.46-6.69-.19-2.58-3.73-3.05-5.05-4.74-.73-1.1-.78-1.32-.63-2.97.38-2,1.78-3.62,1.06-5.17-.93-1.92-2.94-3.34-4.78-4.26-4.18-2.54-7.27,3.44-10.22,4.86-1.47.39-1.78-.43-2.96-1.67-1.86-2.53-4.27-2.65-6.38-.35-2.59,2.36-.93,8.79-1.59,12.19-.75,2.81-4.69,4.43-5.82,7-.62,1.17.04,2.31.8,3.2,1.1,1.15,2.46,2.11,2.76,3.79.42,1.84-.38,4.79-.63,6.75-.19,1.51.24,2.44,1.52,2.85,1.21.33,1.86.37,2.7-.04l.19-.12Z" style="fill: #87c982; stroke: #f2eee2; stroke-miterlimit: 10; stroke-width: 1.5px;"/>
    <path d="M404.72,394.11c4.93-1.66,6.3,3.03,9.73,5.31,2.09,1.39,4.91,2.01,7.31,1.4,1.47-.37,2.99-.13,4.33.65,2.47,1.29,4.17,3.86,6.37,2.96,1.07-.43,1.96-1.27,2.43-2.34,1.81-3.04-2.37-6.84-.5-9.52,2.44-2.68,8.55-3.24,5.35-8.18-1.22-2.02-2.17-3.69-.56-5.88,1.21-1.59,3.08-2.58,3.2-4.3-.02-3.09-1.86-7.14-5.12-7.82-2.92-.82-8.22,3.67-9.75.19-.92-3.22-1.64-6.06-5.89-4.65-3.15.72-5.02,7.43-7.2,10.21-1.99,2.33-6.18,1.92-8.37,3.84-1.79,1.43-.6,3.73-.25,5.54,1.16,3.63-4.5,7.66-4.27,10.13.2,1.31,1.67,2.51,2.96,2.47l.24-.02Z" style="fill: #6d9cbc; stroke: #f2eee2; stroke-miterlimit: 10; stroke-width: 1.5px;"/>
  </g>
  <g id="klemmer">
    <g>
      <path d="M313.68,383.4s52.22-2.49,53.05,0,2.49,28.01,0,32.24l-53.05,1.47v-33.71Z" style="fill: none; stroke: #fce18b; stroke-miterlimit: 10; stroke-width: 1.5px;"/>
      <path d="M173.45,383.4s52.22-2.49,53.05,0,2.49,28.01,0,32.24l-53.05,1.47v-33.71Z" style="fill: none; stroke: #fce18b; stroke-miterlimit: 10; stroke-width: 1.5px;"/>
      <line x1="200.63" y1="382.44" x2="200.63" y2="394.48" style="fill: none; stroke: #fce18b; stroke-miterlimit: 10; stroke-width: 1.5px;"/>
      <line x1="340.8" y1="382.44" x2="340.8" y2="394.48" style="fill: none; stroke: #fce18b; stroke-miterlimit: 10; stroke-width: 1.5px;"/>
    </g>
  </g>
  <g id="omrids">
    <g id="omrids-2" data-name="omrids">
      <path d="M116.21,311.85s-13.79,10.6-11.66,37.12c2.12,26.51-.93,106.44-1.99,114.92-1.06,8.48-1.09,44.69,7.4,53.17,8.48,8.48,20.51,11.99,31.11,13.05s286.91-6.17,292.21-8.29,28.63,0,33.93-6.36c5.3-6.36,5.3-3.18,5.3-15.91s-11.78-164.18-12.73-169.67c-.57-3.3-2.12-22.27-15.91-28.63s-27.57-10.6-39.24-9.54c-11.66,1.06-244.96,5.3-256.62,5.3s-31.81,14.85-31.81,14.85Z" style="fill: none; stroke: #996c4e; stroke-miterlimit: 10;"/>
      <path d="M116.21,311.85c14.29-23.22,24.39-34.54,51.71-41.03,7.24-1.7,8.69-1.33,15.45-1.39,56.33-.03,175.84.02,211.77,0,15.03-.2,44.11.75,59.68,2.69,14.09,2.13,17.16,2.63,25.75,12.16,5.31,5.79,5.64,15.57,6.34,21.01,2.5,35.19,5.9,111.02,7.85,164.8-.21,9.85,2.3,19.46-4.43,26.79-6.43,7.38-15.02,13.25-23.11,18.57" style="fill: none; stroke: #996c4e; stroke-miterlimit: 10;"/>
      <polyline points="472.51 278.26 443.88 301.25 417.26 292.35 148.02 297.01" style="fill: none; stroke: #996c4e; stroke-miterlimit: 10;"/>
    </g>
  </g>
  <g id="hover_3">
    <g id="hover_3-2" data-name="hover_3">
      <circle cx="151.49" cy="472.41" r="22.21" style="fill: #f2eee2; stroke: #ad7b58; stroke-miterlimit: 10;"/>
      <circle cx="151.49" cy="472.41" r="16.44" style="fill: #cc6969; stroke: #cc6969; stroke-miterlimit: 10;"/>
      <path d="M145.45,464.9c3.68-1.55,4.2-1.72,5.08-1.69.5.02,2.64.09,3.99,1.57,2.12,2.32.48,6.13,1.94,6.77,1.01.45,1.96-1.3,4.11-1.09.91.09,2.24.55,2.66,1.57.56,1.36-.67,3.34-2.18,4.23-2.03,1.19-3.39-.28-5.69.85-1.41.69-1.18,1.38-3.39,3.51-.82.79-4.01,3.86-5.2,3.15-.65-.39-.51-1.8-.24-4.6.29-3.02.75-3.7.24-4.35-1.08-1.38-3.94.56-5.69-.85-1.64-1.33-1.55-5.07.12-7.02.31-.36.53-.5,4.23-2.06Z" style="fill: #6d9cbc; stroke: #87c982; stroke-miterlimit: 10;"/>
    </g>
  </g>
  <g id="snor">
    <g id="snor-2" data-name="snor">
      <path d="M307.42,272.13c-2.65,1.63-6.31,4.51-8.8,9.22-4.82,9.11-2.68,20.25,2.79,26.95,1.52,1.87,4.22,5.17,8.38,5.58,5.04.5,8.96-3.56,11.59-6.28.58-.6,8.44-9,7.68-20.52-.16-2.4-.46-6.25-3.21-9.77-1.22-1.56-2.55-2.59-3.49-3.21" style="fill: none; stroke: #414042; stroke-miterlimit: 10;"/>
    </g>
  </g>
  <g id="hover_2">
    <path d="M320.32,325.74c-.56-5.73-2.58-12.56-5.23-17.37-2.12-.58-6.68-.54-9.28-.88-.97-.07-1.26-.2-1.51.2-.3.31.32,1.02.96,1.17,2.8-.94,6.78-.11,8.07,2.97,2.03,4.28-2.4,9.63-6.97,7.76-2.55-.7-4.44-3.36-3.99-6.12.24-1.14-.95-1.46-1.63-2.13-.46-.33-.83-.74-1.25-.43-2.43,2.67-4.69,5.96-6.81,9.33-4.76,8-11.44,16.66-8.19,26.15,3.48,9.03,17.21,14.84,26.31,10.82,11.01-4.91,10.51-21.76,9.55-31.16l-.03-.3Z" style="fill: #f2eee2; stroke: #f2eee2; stroke-miterlimit: 10;"/>
    <line x1="298.05" y1="324.26" x2="313.4" y2="328.05" style="fill: #231f20; stroke: #231f20; stroke-miterlimit: 10; stroke-width: .25px;"/>
    <line x1="293.25" y1="328.05" x2="314.97" y2="334.24" style="fill: #231f20; stroke: #231f20; stroke-miterlimit: 10; stroke-width: .25px;"/>
    <polygon points="293.25 334.24 312.14 339.63 308.68 350.55 289.31 344.56 293.25 334.24" style="fill: none; stroke: #231f20; stroke-miterlimit: 10; stroke-width: .25px;"/>
  </g>
  <g id="håndtag_skygger">
    <path d="M268.43,284.71c1.36-.84,3.25-2.66,2.81-4.34-.08-.31-.36-1.09-1.9-1.93-4.31-2.37-12.07-1.7-13.61,1.71-.06.14-.57,1.3-.02,2.56,1.41,3.25,8.67,4.5,12.72,1.99Z" style="fill: #d6bc7a; stroke: #d6bc7a; stroke-miterlimit: 10;"/>
    <path d="M319.44,284.96c3.48-.54,3.64-5.57,1.31-7.34-3.08-1.34-6.93-.82-10.29-.79-2.76-.23-5.47,2.04-3.88,5.97s9.03,2.74,12.85,2.17Z" style="fill: #d6bc7a; stroke: #d6bc7a; stroke-miterlimit: 10;"/>
    <path d="M259.19,280.8c-5.58-3.86-4.29-21.85,5.19-29.39,3.56-2.83,7.7-8.36,24.11-8.74,14.43-.33,20.56,5.68,22.3,6.73,10.73,6.5,13.2,26.6,6.92,31.41-2.09,1.6-5.7,1.93-7.78.29-4.71-3.73,2.46-14.45-1.15-20.75-5.64-9.85-30.13-11.97-37.19-2.59-5.37,7.14,1.1,18.78-5.05,22.84-2.17,1.43-5.37,1.57-7.34.21Z" style="fill: #fce18b; stroke: #fce18b; stroke-miterlimit: 10;"/>
    <line x1="113.5" y1="367.93" x2="113.5" y2="437.56" style="fill: #fff; stroke: #c59978; stroke-linecap: round; stroke-miterlimit: 10; stroke-width: 1.5px;"/>
    <line x1="113.5" y1="445.84" x2="113.5" y2="454.57" style="fill: #fff; stroke: #c59978; stroke-linecap: round; stroke-miterlimit: 10; stroke-width: 1.5px;"/>
    <line x1="246.95" y1="302.73" x2="292.12" y2="302.73" style="fill: #fff; stroke: #c59978; stroke-linecap: round; stroke-miterlimit: 10; stroke-width: 1.5px;"/>
    <line x1="305.62" y1="302.73" x2="312.53" y2="302.73" style="fill: #fff; stroke: #c59978; stroke-linecap: round; stroke-miterlimit: 10; stroke-width: 1.5px;"/>
    <path d="M416.87,301.61c2.26-.12,11.37-.37,19.77,6.21,8.3,6.5,10.29,15.27,10.73,17.51" style="fill: none; stroke: #894f40; stroke-linecap: round; stroke-miterlimit: 10; stroke-width: 1.5px;"/>
    <path d="M135.9,308.29c-3.12,1.19-10.45,4.46-16.21,12.24-4.67,6.3-6.1,12.6-6.62,15.88" style="fill: none; stroke: #894f40; stroke-linecap: round; stroke-miterlimit: 10; stroke-width: 1.5px;"/>
    <path d="M448.15,512.42c.37.08,8.78,1.65,14.52-4.75,5.42-6.04,3.5-13.69,3.35-14.24" style="fill: none; stroke: #703627; stroke-linecap: round; stroke-miterlimit: 10; stroke-width: 1.5px;"/>
    <path d="M274.63,248.32c2.59-1.02,6.58-2.24,11.57-2.39,4-.12,7.34.48,9.74,1.1" style="fill: none; stroke: #ffeab3; stroke-linecap: round; stroke-miterlimit: 10; stroke-width: 1.5px;"/>
    <path d="M301.91,249.32c1.16.43,2.33.86,3.49,1.29" style="fill: none; stroke: #ffeab3; stroke-linecap: round; stroke-miterlimit: 10; stroke-width: 1.5px;"/>
  </g>
</svg>